# xmcd CD database file
#
# Track frame offsets:
#	150
#	15945
#	30149
#	43169
#	57083
#	74129
#	88326
#	107546
#	117711
#	133771
#	147594
#
# Disc length: 2119 seconds
#
# Revision: 0
# Processed by: cddbd v1.5.2PL0 Copyright (c) Steve Scherf et al.
# Submitted via: CDex 1.70beta2
#
DISCID=9e08450b
DTITLE=A Tribute To B.B. KING - The Hoax - Recession Blues
DYEAR=2014
DGENRE=Blues
TTITLE0=Ten Long Years
TTITLE1=Crying Won't Help You
TTITLE2=I Want To Get Married
TTITLE3=Dark Is The Night
TTITLE4=Troubles, Troubles, Troubles
TTITLE5=Blind Love
TTITLE6=It's My Own Fault Baby
TTITLE7=You Upset Me Baby
TTITLE8=I've Got A Mind To Give Up Living
TTITLE9=Please Love Me
TTITLE10=Recession Blues
EXTD=YEAR: 2014
EXTT0=
EXTT1=
EXTT2=
EXTT3=
EXTT4=
EXTT5=
EXTT6=
EXTT7=
EXTT8=
EXTT9=
EXTT10=
PLAYORDER=
